<svg width="117" height="120" viewBox="0 0 117 120" fill="none" xmlns="http://www.w3.org/2000/svg">
<g filter="url(#filter0_d_467_2572)">
<path d="M63.7304 36H61.151V56.243C64.5831 54.9584 67.1049 53.9093 68.4642 53.3256C68.4642 53.3237 68.4636 53.3224 68.4632 53.3213C68.4629 53.3205 68.4626 53.3198 68.4626 53.3191C68.4467 53.2588 68.4578 53.1936 68.4897 53.1414C68.5056 53.1154 68.5263 53.0926 68.5518 53.0763C68.5607 53.0697 68.5717 53.0642 68.5823 53.059C68.5849 53.0576 68.5875 53.0564 68.59 53.0551L68.6107 53.0469L68.692 53.0143L68.8545 52.9475C68.9225 52.92 68.9902 52.892 69.0579 52.8639C69.2074 52.802 69.3568 52.74 69.5092 52.6851C69.5649 52.6639 69.6207 52.6443 69.6764 52.6264L69.6939 52.6199C69.4263 51.6615 69.3881 50.928 69.6382 50.8285C69.8708 50.7356 70.2881 51.2197 70.7055 52.0005C72.861 51.1903 74.9509 50.3333 77 49.418V48.8435C77 46.7666 76.7707 44.9248 76.3122 43.3181C74.9556 38.4394 70.7617 36 63.7304 36Z" fill="#CCE5FF"/>
<path d="M77 50.4613V51.5393C76.9863 51.6686 76.9709 51.7979 76.9498 51.9271C76.9371 51.7462 76.9355 51.5669 76.9387 51.386C76.9403 51.2067 76.9498 51.0274 76.961 50.8481C76.9713 50.7187 76.9833 50.5894 77 50.4613Z" fill="#CCE5FF"/>
<path d="M77 52.2583V62.9777C73.3982 62.0015 68.9747 60.7145 64.4579 59.2375L64.4558 59.2368C64.1236 59.1278 63.7914 59.0188 63.4575 58.9082C62.7073 58.6588 61.9809 58.4127 61.2736 58.1682C65.1301 56.742 67.7951 55.7086 69.189 55.161L69.1922 55.1756C69.1985 55.2066 69.2129 55.2359 69.232 55.2604C69.2702 55.3109 69.3292 55.3419 69.3897 55.3451C69.42 55.3468 69.4518 55.3419 69.4805 55.3305L69.5219 55.3125L69.6844 55.2441C69.7566 55.2137 69.829 55.1838 69.9014 55.1539C70.0462 55.0941 70.1909 55.0344 70.3343 54.9703C70.3885 54.9458 70.441 54.9214 70.4936 54.8953C70.5063 54.8888 70.5195 54.8822 70.5326 54.8757C70.5458 54.8692 70.5589 54.8627 70.5717 54.8562C70.5812 54.8513 70.5892 54.848 70.5987 54.8431C70.9954 55.557 71.3841 55.9906 71.6055 55.9042C71.8205 55.8195 71.8221 55.2604 71.6453 54.4927C73.4249 53.8238 75.22 53.0741 77 52.2583Z" fill="#CCE5FF"/>
<path d="M77 64.2472V64.7129C73.4654 63.8435 68.4545 62.4654 62.9621 60.5056C62.3413 60.2841 61.7375 60.0677 61.151 59.8567V59.4438C62.5965 59.9509 64.0545 60.4241 65.5102 60.8966L65.6112 60.9294C67.1962 61.4363 68.7812 61.9367 70.3741 62.4208C71.9655 62.9049 73.5632 63.3694 75.1737 63.7932C75.7802 63.9517 76.3894 64.1028 77 64.2472Z" fill="#CCE5FF"/>
<path d="M77 63.2371V63.9766C76.4107 63.8344 75.8228 63.6852 75.2358 63.5291C73.6333 63.1004 72.0404 62.6294 70.4522 62.1404C68.864 61.6514 67.2822 61.1445 65.7004 60.6327C64.1792 60.1405 62.6594 59.6483 61.151 59.1184V58.3922C61.8712 58.6402 62.6145 58.8919 63.3795 59.1462C68.27 60.7715 73.1158 62.1857 77 63.2371Z" fill="#CCE5FF"/>
<path d="M55.849 56.2222V36H53.2696C48.4738 36 45.0155 37.107 42.8947 39.3211C40.9649 41.3392 40 44.5133 40 48.8435V49.3938C42.0672 50.3185 44.1752 51.1835 46.3492 52.0005C46.765 51.2197 47.1839 50.7373 47.4165 50.8285C47.6666 50.928 47.6284 51.6615 47.3608 52.6199L47.3783 52.6264L47.5455 52.6851C47.6991 52.7416 47.8496 52.8036 48.0002 52.8656C48.0668 52.8931 48.1334 52.9205 48.2003 52.9475L48.3627 53.0143L48.444 53.0469L48.4647 53.0551C48.4774 53.06 48.4902 53.0681 48.5029 53.0763C48.5268 53.0926 48.5491 53.1154 48.565 53.1414C48.5985 53.1936 48.608 53.2588 48.5921 53.3191C48.5905 53.3224 48.5905 53.324 48.5905 53.3256C49.9437 53.9062 52.446 54.9471 55.849 56.2222Z" fill="#CCE5FF"/>
<path d="M40 51.1072V50.1454C40.0118 50.2032 40.0222 50.2615 40.0316 50.32C40.0603 50.4977 40.0778 50.6753 40.0921 50.8546C40.1049 51.0339 40.1128 51.2132 40.1144 51.3925C40.1176 51.5718 40.1144 51.7527 40.1033 51.9337C40.081 51.7967 40.065 51.6598 40.0507 51.5229L40 51.5639V51.4566L40.038 51.4039V51.4007H40.0396C40.03 51.2996 40.022 51.1986 40.0141 51.0975L40 51.1072Z" fill="#CCE5FF"/>
<path d="M40 52.2346V62.9936C43.612 62.0157 48.0582 60.7233 52.5984 59.2391C52.9313 59.1299 53.2642 59.0207 53.5988 58.9098C54.349 58.6605 55.0754 58.4127 55.7827 58.1698C51.9246 56.7436 49.2612 55.7103 47.8673 55.1626L47.8641 55.1773C47.8578 55.2066 47.8434 55.2376 47.8243 55.262C47.7861 55.3125 47.7287 55.3435 47.6666 55.3468C47.6348 55.3484 47.6045 55.3435 47.5758 55.3321L47.5344 55.3142L47.3719 55.2457C47.2997 55.2153 47.2273 55.1852 47.1549 55.1552C47.0102 55.095 46.8654 55.0349 46.722 54.9719C46.6678 54.9491 46.6153 54.923 46.5627 54.8969C46.5435 54.8883 46.5235 54.8779 46.5039 54.8677C46.4974 54.8644 46.491 54.861 46.4846 54.8578C46.4799 54.8553 46.4755 54.8533 46.4711 54.8513C46.4667 54.8492 46.4623 54.8472 46.4576 54.8447C46.0609 55.5603 45.6722 55.9939 45.4508 55.9058C45.2358 55.8211 45.2358 55.2604 45.411 54.4943C43.6124 53.8185 41.7982 53.0602 40 52.2346Z" fill="#CCE5FF"/>
<path d="M40 63.9881V63.2512C43.8926 62.1983 48.759 60.7785 53.6704 59.1462C54.4185 58.8982 55.1447 58.6526 55.849 58.4096V59.137C54.4425 59.6301 53.0263 60.0896 51.6083 60.5498C51.5231 60.5774 51.4379 60.605 51.3527 60.6327C49.7709 61.1445 48.1875 61.6514 46.5993 62.1404C45.0112 62.6294 43.4182 63.1004 41.8157 63.5291C41.2127 63.6886 40.607 63.8416 40 63.9881Z" fill="#CCE5FF"/>
<path d="M40 64.7306V64.2629C40.6305 64.1143 41.2596 63.9585 41.8858 63.7948C43.4947 63.371 45.0924 62.9065 46.6854 62.4224C48.2767 61.9383 49.8633 61.4379 51.4483 60.931L51.5004 60.9141C52.9524 60.4428 54.4056 59.9711 55.849 59.4662V59.8838C55.2817 60.0879 54.6984 60.2968 54.099 60.5105C48.5746 62.4802 43.5381 63.8622 40 64.7306Z" fill="#CCE5FF"/>
<path d="M40 64.9887V76H55.849V60.1472C55.3063 60.3424 54.7491 60.5423 54.177 60.7468C52.9966 61.1673 51.8386 61.5618 50.7123 61.9301C46.5325 63.2967 42.7943 64.3039 40 64.9887Z" fill="#CCE5FF"/>
<path d="M61.151 60.1266V76H77V64.9746C74.2119 64.2901 70.4962 63.2874 66.3456 61.9301C65.2193 61.5618 64.0613 61.1673 62.8809 60.7468C62.2881 60.5351 61.7116 60.3284 61.151 60.1266Z" fill="#CCE5FF"/>
<path d="M55.849 57.9228V57.4969C55.5569 57.3859 55.0286 57.1902 54.4385 56.9716C53.5803 56.6537 52.5913 56.2874 52.0074 56.0623C51.8702 56.0093 51.701 55.9415 51.51 55.865C50.3866 55.415 48.5091 54.6629 47.9454 54.8301C47.9444 54.8331 47.9434 54.836 47.9425 54.8388C47.9387 54.8501 47.9352 54.8608 47.9326 54.8725C47.9294 54.8871 47.9263 54.9018 47.9231 54.9148L47.9263 54.9116C49.3068 55.455 51.9744 56.4895 55.849 57.9228Z" fill="#CCE5FF"/>
<path d="M55.849 57.1724C53.2793 56.1963 50.7236 55.1816 48.1779 54.1406C48.213 54.0559 48.248 53.9711 48.2879 53.888C48.3372 53.782 48.3898 53.6793 48.4472 53.5783C48.4503 53.5726 48.4539 53.5669 48.4575 53.5612C48.4611 53.5555 48.4647 53.5498 48.4679 53.5441C49.8279 54.129 52.375 55.1894 55.849 56.489V57.1724Z" fill="#CCE5FF"/>
<path d="M61.151 57.9486C65.0568 56.5036 67.745 55.4607 69.1332 54.9148C69.1301 54.9003 69.1268 54.8854 69.1237 54.8725C69.1227 54.8695 69.1217 54.8666 69.1208 54.8637C69.117 54.8524 69.1135 54.8418 69.1109 54.8301C68.5499 54.6651 66.6873 55.4096 65.5621 55.8593C65.3646 55.9382 65.1899 56.0081 65.0489 56.0623C64.4415 56.2965 63.3959 56.6834 62.5151 57.0093C61.9271 57.2269 61.4126 57.4173 61.151 57.5169V57.9486Z" fill="#CCE5FF"/>
<path d="M61.151 57.1948C63.7393 56.2124 66.3145 55.1906 68.8768 54.1422C68.8417 54.0558 68.8067 53.9727 68.7669 53.8896C68.7175 53.7836 68.6649 53.681 68.6076 53.5799L68.6091 53.5815C68.606 53.5758 68.6024 53.5701 68.5988 53.5644C68.5952 53.5587 68.5916 53.553 68.5885 53.5473C67.221 54.1338 64.6535 55.2031 61.151 56.5121V57.1948Z" fill="#CCE5FF"/>
<path d="M47.6427 55.1137L47.6475 55.0844L47.6491 55.0827L47.6666 54.9931C47.6729 54.9536 47.6819 54.9148 47.6909 54.8759C47.6957 54.8553 47.7004 54.8346 47.7048 54.8138C47.7606 54.5758 47.8355 54.3411 47.9263 54.1145C48.0171 53.888 48.1238 53.6679 48.248 53.4577C48.2799 53.4039 48.3118 53.3517 48.3452 53.3012L48.3723 53.2637V53.2604L48.119 53.1463C48.049 53.114 47.9786 53.0823 47.9079 53.0505C47.7647 52.9859 47.6211 52.9212 47.4802 52.8513C47.4371 52.8305 47.3959 52.8087 47.3544 52.7867C47.3438 52.7811 47.3332 52.7754 47.3225 52.7698C47.3122 52.7635 47.3007 52.7575 47.2888 52.7512C47.2731 52.743 47.2567 52.7344 47.2413 52.7242C47.2142 52.7063 47.1871 52.6883 47.1632 52.6671C47.0645 52.584 46.9944 52.4699 46.9673 52.3509C47.0278 52.4292 47.0979 52.4911 47.1744 52.5384C47.2907 52.0429 47.2986 51.7201 47.2222 51.6843H47.219C47.2094 51.681 47.1983 51.6826 47.1855 51.6875C47.0135 51.7576 46.6392 52.452 46.2568 53.4169C45.8236 54.5073 45.6691 55.3337 45.7997 55.3957C45.8092 55.4006 45.8236 55.3989 45.8395 55.3924C45.943 55.35 46.1087 55.1235 46.2935 54.7877C46.2266 54.773 46.1565 54.7616 46.0816 54.7616C46.1868 54.7013 46.3174 54.6801 46.4448 54.6981C46.4767 54.7029 46.5085 54.7095 46.5388 54.7192C46.559 54.7247 46.5777 54.7301 46.5964 54.7355C46.6058 54.7382 46.6152 54.741 46.6248 54.7437C46.6806 54.76 46.7363 54.7779 46.7921 54.7975C46.9397 54.8486 47.0859 54.904 47.2321 54.9594C47.3052 54.9871 47.3783 55.0148 47.4516 55.042L47.6156 55.1039L47.6427 55.1137Z" fill="#CCE5FF"/>
<path d="M69.8931 52.6688C69.8692 52.69 69.8421 52.7079 69.815 52.7258V52.7274C69.7979 52.7388 69.78 52.7482 69.7628 52.7573C69.7529 52.7626 69.7431 52.7677 69.7338 52.7731C69.6812 52.8008 69.6286 52.8285 69.5761 52.8546C69.4299 52.9277 69.2822 52.9938 69.1346 53.0599C69.0682 53.0896 69.0019 53.1193 68.9357 53.1496L68.6856 53.2637V53.267L68.7111 53.3044C68.7445 53.3566 68.7764 53.4088 68.8083 53.4609C68.9325 53.6712 69.0392 53.8912 69.13 54.1178C69.2208 54.3444 69.2957 54.5791 69.3515 54.817C69.356 54.8385 69.3607 54.8597 69.3654 54.8809C69.374 54.9193 69.3825 54.9575 69.3897 54.9963L69.4072 55.086L69.412 55.1153L69.4391 55.1055L69.6031 55.0436C69.6764 55.0164 69.7496 54.9889 69.8227 54.9614C69.9689 54.9063 70.115 54.8513 70.2626 54.7991C70.3184 54.7796 70.3742 54.7616 70.4299 54.7453C70.4395 54.7426 70.4489 54.7399 70.4583 54.7372C70.477 54.7317 70.4958 54.7263 70.5159 54.7209C70.5462 54.7111 70.578 54.7046 70.6099 54.6997C70.7373 54.6818 70.868 54.7029 70.9731 54.7633C70.8982 54.7633 70.8281 54.773 70.7612 54.7893C70.9476 55.1251 71.1117 55.3517 71.2152 55.394C71.2311 55.4006 71.2455 55.4022 71.2551 55.3973C71.3873 55.3354 71.2312 54.5073 70.7995 53.4185C70.4172 52.4552 70.0444 51.7592 69.8708 51.6892C69.8564 51.6843 69.8469 51.6826 69.8373 51.6859H69.8341C69.7561 51.7218 69.7656 52.0445 69.8819 52.54C69.9584 52.4927 70.0285 52.4308 70.089 52.3526C70.0619 52.4715 69.9918 52.5856 69.8931 52.6688Z" fill="#CCE5FF"/>
<path d="M71.4153 51.9977C71.2167 52.0752 71.0186 52.1525 70.817 52.2287H70.8154L71.0018 52.6932C71.0655 52.6476 71.1849 52.584 71.4223 52.527C71.674 52.4667 72.0149 53.6353 72.1264 54.0428C72.163 54.029 72.1997 54.0147 72.2363 54.0004C72.2729 53.9862 72.3096 53.9719 72.3462 53.9581C72.1519 53.1496 71.8779 52.3297 71.5211 51.9565C71.4858 51.9702 71.4505 51.984 71.4153 51.9977Z" fill="#CCE5FF"/>
<path d="M73.1682 53.4642L73.2972 52.6329H73.2988L72.676 52.1472L72.668 51.6191L72.4912 52.967V52.9687L73.1682 53.4642Z" fill="#CCE5FF"/>
<path d="M73.2701 51.8619C73.2351 51.813 73.1953 51.7674 73.1522 51.7267H73.1507C73.1659 51.7598 73.1817 51.7924 73.1975 51.8248C73.208 51.8465 73.2185 51.8681 73.2287 51.8896C73.2318 51.8958 73.2349 51.9019 73.238 51.908C73.2619 51.9553 73.2852 52.0015 73.3036 52.0478L73.3562 52.1782L73.3721 52.038L73.4023 51.7576C73.4054 51.7313 73.4083 51.7051 73.4112 51.679C73.4186 51.6112 73.4259 51.5439 73.4374 51.4756C73.4103 51.5148 73.3928 51.5588 73.3769 51.6044C73.3609 51.65 73.3482 51.6957 73.3386 51.743C73.3291 51.7902 73.3211 51.8375 73.3147 51.8848C73.3138 51.8918 73.3128 51.8996 73.3121 51.9071C73.3118 51.9117 73.3116 51.9163 73.3116 51.9206C73.3044 51.9108 73.2976 51.9011 73.2908 51.8913C73.2841 51.8815 73.2773 51.8717 73.2701 51.8619Z" fill="#CCE5FF"/>
<path d="M73.5648 52.7747V52.8627C73.5616 53.0159 73.5616 53.1692 73.5712 53.3224C73.5919 53.1887 73.6094 53.0551 73.6254 52.9214L73.8245 53.1137L73.6397 52.7992C73.6406 52.7965 73.641 52.7938 73.6411 52.7911C73.6413 52.7889 73.6413 52.7867 73.6413 52.7845L73.6439 52.7614C73.6526 52.6846 73.6611 52.6089 73.6684 52.5319L74.2817 52.9736L74.4043 52.1488L73.7592 51.6517C73.7751 51.4919 73.7926 51.3322 73.8149 51.1725C73.7496 51.3387 73.7098 51.5164 73.6763 51.6941C73.6429 51.8717 73.6206 52.051 73.6015 52.2319C73.5839 52.4129 73.5696 52.5938 73.5648 52.7747Z" fill="#CCE5FF"/>
<path d="M74.4171 51.3941C74.382 51.3485 74.3438 51.3061 74.3024 51.267V51.2686C74.3183 51.3044 74.3349 51.3388 74.3513 51.3727C74.3595 51.3897 74.3676 51.4066 74.3756 51.4235C74.4011 51.474 74.4266 51.5245 74.4457 51.5734L74.4967 51.7038L74.5126 51.5653C74.5148 51.5501 74.5171 51.5348 74.5194 51.5196C74.524 51.4892 74.5286 51.4588 74.5317 51.4284L74.5493 51.2915C74.5533 51.262 74.557 51.2328 74.5608 51.2037C74.5687 51.1413 74.5766 51.0794 74.5875 51.016C74.562 51.0551 74.5429 51.0975 74.527 51.1415C74.5111 51.1855 74.4983 51.2295 74.4871 51.2752C74.476 51.3192 74.4664 51.3664 74.4601 51.4121C74.459 51.4211 74.4579 51.4293 74.4568 51.4379C74.4563 51.4417 74.4558 51.4455 74.4553 51.4496C74.4426 51.43 74.4298 51.4121 74.4171 51.3941Z" fill="#CCE5FF"/>
<path d="M75.3983 52.4813L75.5146 51.6647H75.5162L74.8902 51.1888C74.9061 51.0241 74.9236 50.8595 74.9459 50.6933C74.8806 50.8595 74.8424 51.0372 74.8105 51.2148C74.7787 51.3925 74.7579 51.5718 74.7404 51.7511C74.7245 51.9304 74.7133 52.1113 74.7086 52.2922C74.7038 52.4732 74.7038 52.6541 74.7165 52.8367C74.7372 52.703 74.7532 52.5693 74.7691 52.4357L74.9698 52.6296L74.7834 52.3118V52.302C74.7897 52.2486 74.7946 52.1958 74.7995 52.1433C74.802 52.1158 74.8046 52.0883 74.8073 52.0608L75.3983 52.4813Z" fill="#CCE5FF"/>
<path d="M75.4811 51.0176C75.4461 50.972 75.4079 50.9296 75.3665 50.8905V50.8921C75.3824 50.9279 75.399 50.9623 75.4154 50.9962C75.4236 51.0132 75.4317 51.0301 75.4397 51.047C75.4652 51.0975 75.4907 51.148 75.5098 51.1969L75.5608 51.3273L75.5767 51.1888C75.5788 51.1736 75.5812 51.1584 75.5835 51.1432C75.5881 51.1127 75.5927 51.0823 75.5959 51.0519L75.6134 50.9149C75.6174 50.8855 75.6211 50.8563 75.6248 50.8273C75.6328 50.7648 75.6407 50.7029 75.6516 50.6395C75.6261 50.6786 75.607 50.721 75.5911 50.765C75.5751 50.809 75.5624 50.853 75.5512 50.8986C75.5401 50.9426 75.5305 50.9899 75.5242 51.0356C75.5226 51.0486 75.521 51.06 75.5194 51.073C75.5066 51.0535 75.4939 51.0356 75.4811 51.0176Z" fill="#CCE5FF"/>
<path d="M76.515 51.9891L76.6249 51.1806L76.6233 51.1774L75.9925 50.7047L75.9931 50.6979C76.004 50.5681 76.0151 50.4367 76.0339 50.3053C75.9702 50.4716 75.9336 50.6493 75.9049 50.8253C75.8762 51.0013 75.8587 51.1806 75.8443 51.3599C75.8332 51.5392 75.8236 51.7185 75.822 51.8978C75.8189 52.0787 75.8204 52.258 75.8332 52.4389C75.8555 52.302 75.8714 52.1651 75.8858 52.0282L76.1215 52.2189L75.8985 51.9092V51.9059C75.9081 51.7967 75.9176 51.6859 75.9256 51.5751L76.515 51.9891Z" fill="#CCE5FF"/>
<path d="M76.5835 50.5091C76.5484 50.4634 76.5102 50.4211 76.4688 50.3819V50.3836C76.4837 50.4183 76.5007 50.4531 76.5174 50.4874C76.5258 50.5045 76.5341 50.5216 76.5421 50.5384C76.5676 50.5889 76.593 50.6395 76.6121 50.6884L76.6631 50.8188L76.679 50.6802C76.6812 50.665 76.6835 50.6498 76.6858 50.6346C76.6904 50.6041 76.695 50.5737 76.6982 50.5433L76.7157 50.4064C76.7195 50.3788 76.7231 50.3515 76.7268 50.3243C76.7353 50.26 76.7438 50.1963 76.7539 50.1309C76.7284 50.17 76.7093 50.2124 76.6934 50.2564C76.6775 50.3004 76.6647 50.3445 76.6536 50.3901C76.6424 50.4341 76.6328 50.4814 76.6265 50.527C76.6257 50.5335 76.6249 50.5395 76.6241 50.5456C76.6233 50.5517 76.6225 50.5579 76.6217 50.5645C76.609 50.5449 76.5962 50.527 76.5835 50.5091Z" fill="#CCE5FF"/>
<path d="M69.6628 51.5021C69.6652 51.4763 69.6676 51.4507 69.6701 51.4251V51.4267C69.6723 51.3929 69.676 51.359 69.6797 51.3257C69.6813 51.3109 69.6829 51.2962 69.6844 51.2817C69.6908 51.2344 69.6987 51.1855 69.7131 51.148C69.7179 51.1399 69.7226 51.1317 69.7258 51.1285C69.7274 51.1268 69.729 51.1268 69.729 51.1268C69.7401 51.1301 69.7609 51.1415 69.7768 51.1529C69.8134 51.179 69.8501 51.21 69.8835 51.2426C69.952 51.3094 70.0141 51.3827 70.0731 51.4593C70.3057 51.769 70.4904 52.1178 70.6545 52.4732C70.8202 52.8285 70.9651 53.1952 71.0958 53.5669C71.228 53.9369 71.3458 54.3134 71.4589 54.6915C71.3634 54.3085 71.255 53.9271 71.1324 53.5522C71.0081 53.1773 70.8711 52.8057 70.7103 52.4455C70.5462 52.0852 70.3646 51.7315 70.1272 51.4137C70.0683 51.3338 70.0046 51.2572 69.9329 51.1871C69.8963 51.1513 69.8596 51.1171 69.8166 51.0877C69.8071 51.0796 69.7959 51.073 69.7832 51.0665C69.782 51.0659 69.7808 51.0653 69.7797 51.0647C69.7683 51.0588 69.7574 51.0532 69.7386 51.0502C69.7322 51.0502 69.7274 51.047 69.7147 51.0502C69.7067 51.0535 69.7035 51.0535 69.6987 51.0567C69.6892 51.0616 69.6812 51.0682 69.6748 51.0747C69.6635 51.0877 69.6572 51.1008 69.6515 51.1127C69.6507 51.1142 69.6501 51.1156 69.6494 51.1171C69.6317 51.1644 69.6279 51.2082 69.6242 51.2514C69.6236 51.2588 69.623 51.2662 69.6223 51.2735C69.6191 51.3241 69.6191 51.3746 69.6191 51.4235C69.6223 51.5229 69.6271 51.6207 69.6398 51.7201C69.6492 51.6479 69.656 51.5748 69.6628 51.5021Z" fill="#CCE5FF"/>
<path d="M46.053 52.6948L46.2393 52.2287H46.2377C46.1018 52.1779 45.9669 52.1255 45.8318 52.0731C45.7327 52.0346 45.6334 51.9961 45.5336 51.9581C45.1768 52.333 44.9028 53.1512 44.7085 53.9597C44.7818 53.989 44.855 54.0167 44.9283 54.0444C45.0398 53.637 45.3823 52.4683 45.6324 52.5286C45.8698 52.5856 45.9908 52.6492 46.053 52.6948Z" fill="#CCE5FF"/>
<path d="M43.8897 53.4658L44.5667 52.9703V52.9687L44.3915 51.6207L44.3835 52.1488L43.7607 52.6345L43.8897 53.4658Z" fill="#CCE5FF"/>
<path d="M43.7018 52.1814L43.7527 52.051H43.7543C43.775 51.9989 43.8021 51.9451 43.8292 51.8929C43.8563 51.8391 43.8834 51.7853 43.9072 51.7299C43.8626 51.7723 43.8244 51.8179 43.7878 51.8652C43.7734 51.8848 43.7591 51.9043 43.7464 51.9239C43.7456 51.9182 43.7452 51.9121 43.7448 51.9059C43.7444 51.8998 43.744 51.8937 43.7432 51.888C43.7368 51.8407 43.7288 51.7935 43.7193 51.7462C43.7081 51.6989 43.697 51.6533 43.681 51.6077C43.6651 51.5637 43.646 51.518 43.6205 51.4789C43.6364 51.5751 43.646 51.6663 43.6556 51.7609L43.6858 52.0412L43.7018 52.1814Z" fill="#CCE5FF"/>
<path d="M43.3999 52.6614C43.4043 52.7034 43.4086 52.7454 43.4134 52.7878C43.415 52.7926 43.415 52.8024 43.415 52.8024L43.2302 53.117L43.4294 52.9247C43.4453 53.0583 43.4628 53.192 43.4835 53.3256C43.4931 53.1724 43.4931 53.0192 43.4899 52.866V52.778C43.4835 52.597 43.4708 52.4161 43.4532 52.2352C43.4341 52.0543 43.4118 51.875 43.3784 51.6973C43.3449 51.5196 43.3051 51.342 43.2398 51.1757C43.2621 51.3355 43.2796 51.4952 43.2956 51.6549L42.6504 52.1521L42.7731 52.9768L43.3864 52.5351C43.3911 52.5775 43.3955 52.6194 43.3999 52.6614Z" fill="#CCE5FF"/>
<path d="M42.5596 51.7087L42.6106 51.5783V51.5767C42.6297 51.5278 42.6552 51.4773 42.6807 51.4267C42.6886 51.4099 42.6969 51.3931 42.7053 51.3762C42.7221 51.3422 42.7391 51.3078 42.7539 51.2719C42.7109 51.311 42.6743 51.3534 42.6393 51.399C42.6329 51.408 42.6265 51.4174 42.6201 51.4267C42.6138 51.4361 42.6074 51.4455 42.601 51.4545C42.6002 51.4479 42.5994 51.4418 42.5986 51.4357C42.5978 51.4296 42.597 51.4235 42.5962 51.417C42.5899 51.3713 42.5803 51.3257 42.5692 51.28C42.558 51.236 42.5453 51.1904 42.5293 51.1464C42.5134 51.1024 42.4943 51.0584 42.4688 51.0209C42.4847 51.1154 42.4959 51.2051 42.507 51.2963L42.5246 51.4333C42.5267 51.4485 42.529 51.4637 42.5313 51.4789C42.5359 51.5093 42.5405 51.5397 42.5437 51.5702L42.5596 51.7087Z" fill="#CCE5FF"/>
<path d="M41.4796 51.1937L41.4955 51.3322V51.3289L41.5465 51.2002C41.5656 51.1513 41.5911 51.1008 41.6166 51.0502C41.6245 51.0334 41.6328 51.0166 41.6412 50.9997C41.658 50.9657 41.675 50.9313 41.6899 50.8954C41.6468 50.9345 41.6102 50.9769 41.5752 51.0225C41.5688 51.0315 41.5624 51.0409 41.556 51.0502C41.5497 51.0596 41.5433 51.069 41.5369 51.0779C41.5361 51.0714 41.5353 51.0653 41.5345 51.0592C41.5337 51.0531 41.5329 51.047 41.5322 51.0404C41.5258 50.9948 41.5162 50.9492 41.5051 50.9035C41.4939 50.8595 41.4812 50.8139 41.4652 50.7699C41.4493 50.7259 41.4302 50.6819 41.4047 50.6444C41.4206 50.7389 41.4318 50.8285 41.4429 50.9198L41.4605 51.0567C41.4626 51.072 41.4649 51.0872 41.4672 51.1024C41.4718 51.1328 41.4764 51.1632 41.4796 51.1937Z" fill="#CCE5FF"/>
<path d="M41.1307 51.5832C41.1387 51.6941 41.1467 51.8033 41.1578 51.9141L41.1562 51.9174V51.9206L40.9332 52.2303L41.169 52.0396C41.1833 52.1765 41.1992 52.3134 41.2215 52.4503C41.2327 52.2694 41.2359 52.0885 41.2327 51.9092C41.2311 51.7299 41.2231 51.5506 41.2104 51.3713C41.196 51.192 41.1785 51.0144 41.1498 50.8367C41.1212 50.659 41.0845 50.483 41.0208 50.3167C41.0383 50.4504 41.0511 50.5824 41.0622 50.7161L40.4314 51.1888L40.5413 51.9972L41.1307 51.5832Z" fill="#CCE5FF"/>
<path d="M40.3757 50.6851L40.3916 50.8237V50.822L40.4426 50.6916C40.4617 50.6427 40.4872 50.5922 40.5127 50.5417C40.5206 50.5249 40.5289 50.508 40.5373 50.4911C40.554 50.4572 40.5711 50.4227 40.5859 50.3868C40.5429 50.426 40.5063 50.4683 40.4712 50.514C40.4649 50.5229 40.4585 50.5323 40.4521 50.5417C40.4458 50.5511 40.4394 50.5604 40.433 50.5694C40.4322 50.5629 40.4314 50.5568 40.4306 50.5506C40.4298 50.5445 40.429 50.5384 40.4282 50.5319C40.4219 50.4863 40.4123 50.4406 40.4012 50.395C40.39 50.351 40.3773 50.3053 40.3613 50.2613C40.3454 50.2173 40.3263 50.1733 40.3008 50.1358C40.3167 50.2304 40.3279 50.32 40.339 50.4113L40.3566 50.5482C40.3587 50.5634 40.361 50.5786 40.3633 50.5938C40.3679 50.6243 40.3725 50.6547 40.3757 50.6851Z" fill="#CCE5FF"/>
<path d="M46.3461 52.4455C46.1852 52.8057 46.0482 53.1773 45.9239 53.5522V53.5506C45.8013 53.9271 45.6929 54.3069 45.5974 54.6899C45.7105 54.3118 45.8283 53.9369 45.9606 53.5652C46.0912 53.1936 46.2361 52.8269 46.4018 52.4715C46.5659 52.1162 46.7491 51.7674 46.9832 51.4577C47.0422 51.3811 47.1043 51.3078 47.1728 51.2409C47.2062 51.2083 47.2429 51.1774 47.2795 51.1513C47.2955 51.1399 47.3178 51.1285 47.3273 51.1252C47.3289 51.1268 47.3305 51.1268 47.3305 51.1268C47.3353 51.1301 47.3401 51.1382 47.3432 51.1464C47.3576 51.1839 47.3655 51.2328 47.3719 51.28C47.3734 51.2946 47.375 51.3092 47.3766 51.324C47.3803 51.3574 47.384 51.3912 47.3863 51.4251C47.3887 51.4502 47.391 51.4752 47.3934 51.5003C47.4002 51.5731 47.407 51.6462 47.4165 51.7201C47.4293 51.6223 47.4356 51.5229 47.4372 51.4235C47.4372 51.3746 47.4372 51.324 47.434 51.2735C47.4309 51.223 47.4277 51.1725 47.407 51.1171C47.4006 51.1024 47.3942 51.0893 47.3815 51.0747C47.3751 51.0682 47.3671 51.0616 47.3576 51.0567C47.3546 51.0547 47.3523 51.054 47.349 51.0529C47.347 51.0522 47.3447 51.0515 47.3417 51.0502C47.3329 51.0491 47.3278 51.0495 47.3235 51.0499C47.3215 51.0501 47.3197 51.0502 47.3178 51.0502C47.2989 51.0532 47.288 51.0588 47.2766 51.0647C47.2755 51.0653 47.2743 51.0659 47.2732 51.0665C47.262 51.073 47.2508 51.0796 47.2397 51.0877C47.1967 51.1187 47.1601 51.1513 47.1234 51.1871C47.0517 51.2589 46.9896 51.3338 46.9291 51.4137C46.6917 51.7332 46.5101 52.0869 46.3461 52.4455Z" fill="#CCE5FF"/>
<path d="M42.2713 52.3069C42.2647 52.2519 42.2596 52.197 42.2545 52.1415L42.2545 52.1408C42.2522 52.1159 42.2499 52.0909 42.2474 52.0657L41.6564 52.4862L41.5401 51.6696L42.1661 51.1937C42.1502 51.029 42.1343 50.8644 42.1104 50.6982C42.1757 50.8644 42.2139 51.0421 42.2458 51.2197C42.2777 51.3974 42.2984 51.5767 42.3159 51.756C42.3318 51.9353 42.343 52.1162 42.3477 52.2971C42.3525 52.4781 42.3525 52.659 42.3398 52.8415C42.3175 52.7079 42.3015 52.5742 42.2872 52.4406L42.0865 52.6345L42.2729 52.3167V52.3069H42.2713Z" fill="#CCE5FF"/>
</g>
<defs>
<filter id="filter0_d_467_2572" x="0" y="0" width="117" height="120" filterUnits="userSpaceOnUse" color-interpolation-filters="sRGB">
<feFlood flood-opacity="0" result="BackgroundImageFix"/>
<feColorMatrix in="SourceAlpha" type="matrix" values="0 0 0 0 0 0 0 0 0 0 0 0 0 0 0 0 0 0 127 0" result="hardAlpha"/>
<feOffset dy="4"/>
<feGaussianBlur stdDeviation="20"/>
<feComposite in2="hardAlpha" operator="out"/>
<feColorMatrix type="matrix" values="0 0 0 0 0 0 0 0 0 0 0 0 0 0 0 0 0 0 0.25 0"/>
<feBlend mode="normal" in2="BackgroundImageFix" result="effect1_dropShadow_467_2572"/>
<feBlend mode="normal" in="SourceGraphic" in2="effect1_dropShadow_467_2572" result="shape"/>
</filter>
</defs>
</svg>
